<mxfile host="app.diagrams.net" agent="Mozilla/5.0 (Windows NT 10.0; Win64; x64) AppleWebKit/537.36 (KHTML, like Gecko) Chrome/140.0.0.0 Safari/537.36" version="28.2.4">
  <diagram name="Page-1" id="HPovzCURMdHL7m8E8BwD">
    <mxGraphModel dx="459" dy="427" grid="1" gridSize="7" guides="1" tooltips="1" connect="1" arrows="1" fold="1" page="1" pageScale="1" pageWidth="1169" pageHeight="827" math="1" shadow="0">
      <root>
        <mxCell id="0" />
        <mxCell id="1" parent="0" />
        <mxCell id="ni8mfcF26N4LthKKvr2r-37" value="" style="rounded=1;whiteSpace=wrap;html=1;fontSize=13;fontFamily=Times New Roman;fontStyle=1;absoluteArcSize=1;container=0;" vertex="1" parent="1">
          <mxGeometry x="385" y="464" width="120" height="60" as="geometry" />
        </mxCell>
        <mxCell id="ni8mfcF26N4LthKKvr2r-38" value="" style="verticalLabelPosition=bottom;verticalAlign=top;html=1;shape=mxgraph.basic.rect;fillColor2=none;strokeWidth=1;size=20;indent=5;strokeColor=default;align=center;fontFamily=Times New Roman;fontSize=12;fontColor=default;fillColor=#dae8fc;container=0;" vertex="1" parent="1">
          <mxGeometry x="445" y="504" width="30" height="10" as="geometry" />
        </mxCell>
        <mxCell id="ni8mfcF26N4LthKKvr2r-39" value="" style="verticalLabelPosition=bottom;verticalAlign=top;html=1;shape=mxgraph.basic.rect;fillColor2=none;strokeWidth=1;size=20;indent=5;strokeColor=default;fillColor=#dae8fc;fontFamily=Times New Roman;container=0;" vertex="1" parent="1">
          <mxGeometry x="415" y="494" width="30" height="10" as="geometry" />
        </mxCell>
        <mxCell id="ni8mfcF26N4LthKKvr2r-40" value="dec_consclass" style="rounded=0;orthogonalLoop=1;jettySize=auto;html=1;exitX=0.5;exitY=1;exitDx=0;exitDy=0;shadow=0;flowAnimation=0;endArrow=block;endFill=1;entryX=0.5;entryY=0;entryDx=0;entryDy=0;edgeStyle=orthogonalEdgeStyle;curved=0;fontFamily=Times New Roman;" edge="1" parent="1" source="ni8mfcF26N4LthKKvr2r-43" target="ni8mfcF26N4LthKKvr2r-54">
          <mxGeometry relative="1" as="geometry" />
        </mxCell>
        <mxCell id="ni8mfcF26N4LthKKvr2r-41" value="dec_consclass" style="edgeStyle=orthogonalEdgeStyle;rounded=0;orthogonalLoop=1;jettySize=auto;html=1;exitX=0.5;exitY=1;exitDx=0;exitDy=0;curved=0;shadow=0;strokeColor=default;align=center;verticalAlign=middle;fontFamily=Times New Roman;fontSize=11;fontColor=default;labelBackgroundColor=default;endArrow=block;endFill=1;flowAnimation=0;" edge="1" parent="1" source="ni8mfcF26N4LthKKvr2r-43" target="ni8mfcF26N4LthKKvr2r-47">
          <mxGeometry relative="1" as="geometry">
            <mxPoint x="620" y="350" as="targetPoint" />
          </mxGeometry>
        </mxCell>
        <mxCell id="ni8mfcF26N4LthKKvr2r-42" value="dec_consclass" style="edgeStyle=orthogonalEdgeStyle;rounded=1;orthogonalLoop=1;jettySize=auto;html=1;exitX=0.5;exitY=1;exitDx=0;exitDy=0;shadow=0;strokeColor=default;align=center;verticalAlign=middle;fontFamily=Times New Roman;fontSize=11;fontColor=default;labelBackgroundColor=default;endArrow=block;endFill=1;flowAnimation=0;curved=0;" edge="1" parent="1" source="ni8mfcF26N4LthKKvr2r-43">
          <mxGeometry x="0.2857" y="-2" relative="1" as="geometry">
            <mxPoint x="590" y="340" as="targetPoint" />
            <mxPoint as="offset" />
          </mxGeometry>
        </mxCell>
        <mxCell id="ni8mfcF26N4LthKKvr2r-43" value="" style="rounded=1;whiteSpace=wrap;html=1;fillColor=#e1d5e7;strokeColor=default;fontSize=13;fontFamily=Times New Roman;fontStyle=1" vertex="1" parent="1">
          <mxGeometry x="530" y="210" width="120" height="60" as="geometry" />
        </mxCell>
        <mxCell id="ni8mfcF26N4LthKKvr2r-44" value="&lt;font style=&quot;font-size: 13px; font-weight: 700;&quot;&gt;Root / Initial&lt;/font&gt;&lt;div style=&quot;font-size: 13px; font-weight: 700;&quot;&gt;&lt;font style=&quot;font-weight: normal; font-size: 12px;&quot;&gt;(all constraints open)&lt;/font&gt;&lt;/div&gt;" style="text;html=1;align=center;verticalAlign=middle;whiteSpace=wrap;rounded=0;fontFamily=Times New Roman;" vertex="1" parent="1">
          <mxGeometry x="535" y="180" width="110" height="20" as="geometry" />
        </mxCell>
        <mxCell id="ni8mfcF26N4LthKKvr2r-50" value="Open" style="text;html=1;align=center;verticalAlign=middle;whiteSpace=wrap;rounded=0;container=0;fontSize=11;fontFamily=Times New Roman;" vertex="1" parent="1">
          <mxGeometry x="560" y="225" width="60" height="30" as="geometry" />
        </mxCell>
        <mxCell id="ni8mfcF26N4LthKKvr2r-51" value="dec_connectedBase" style="edgeStyle=orthogonalEdgeStyle;rounded=0;orthogonalLoop=1;jettySize=auto;html=1;exitX=0.5;exitY=1;exitDx=0;exitDy=0;shadow=0;strokeColor=default;align=center;verticalAlign=middle;fontFamily=Times New Roman;fontSize=11;fontColor=default;labelBackgroundColor=default;endArrow=block;endFill=1;flowAnimation=0;curved=0;" edge="1" parent="1" source="ni8mfcF26N4LthKKvr2r-54" target="ni8mfcF26N4LthKKvr2r-37">
          <mxGeometry relative="1" as="geometry" />
        </mxCell>
        <mxCell id="ni8mfcF26N4LthKKvr2r-53" value="" style="group;fontFamily=Times New Roman;" vertex="1" connectable="0" parent="1">
          <mxGeometry x="385" y="332" width="120" height="64" as="geometry" />
        </mxCell>
        <mxCell id="ni8mfcF26N4LthKKvr2r-54" value="" style="rounded=1;whiteSpace=wrap;html=1;fillColor=#e1d5e7;strokeColor=default;fontSize=13;fontFamily=Times New Roman;fontStyle=1;absoluteArcSize=1;container=0;" vertex="1" parent="ni8mfcF26N4LthKKvr2r-53">
          <mxGeometry y="5" width="120" height="60" as="geometry" />
        </mxCell>
        <mxCell id="ni8mfcF26N4LthKKvr2r-55" value="Open (4.4)" style="text;html=1;align=center;verticalAlign=middle;whiteSpace=wrap;rounded=0;container=0;fontSize=11;fontFamily=Times New Roman;" vertex="1" parent="ni8mfcF26N4LthKKvr2r-53">
          <mxGeometry x="30" y="30" width="60" height="30" as="geometry" />
        </mxCell>
        <mxCell id="ni8mfcF26N4LthKKvr2r-56" value="" style="verticalLabelPosition=bottom;verticalAlign=top;html=1;shape=mxgraph.basic.rect;fillColor2=none;strokeWidth=1;size=20;indent=5;fillColor=#f8cecc;strokeColor=default;right=1;bottom=1;topLeftStyle=rounded;topRightStyle=rounded;container=0;fontFamily=Times New Roman;" vertex="1" parent="ni8mfcF26N4LthKKvr2r-53">
          <mxGeometry y="5" width="120" height="20" as="geometry" />
        </mxCell>
        <mxCell id="ni8mfcF26N4LthKKvr2r-57" value="Master (4.3)" style="text;html=1;align=center;verticalAlign=middle;whiteSpace=wrap;rounded=0;fontFamily=Times New Roman;container=0;fontSize=11;" vertex="1" parent="ni8mfcF26N4LthKKvr2r-53">
          <mxGeometry x="30" width="60" height="30" as="geometry" />
        </mxCell>
        <mxCell id="ni8mfcF26N4LthKKvr2r-60" value="Round 1" style="text;html=1;align=center;verticalAlign=middle;whiteSpace=wrap;rounded=0;fontFamily=Times New Roman;fontSize=15;fontStyle=3" vertex="1" parent="1">
          <mxGeometry x="280" y="284" width="60" height="30" as="geometry" />
        </mxCell>
        <mxCell id="ni8mfcF26N4LthKKvr2r-61" value="Round 2" style="text;html=1;align=center;verticalAlign=middle;whiteSpace=wrap;rounded=0;fontFamily=Times New Roman;fontSize=15;fontStyle=3" vertex="1" parent="1">
          <mxGeometry x="280" y="412" width="60" height="30" as="geometry" />
        </mxCell>
        <mxCell id="ni8mfcF26N4LthKKvr2r-62" value="" style="endArrow=none;html=1;rounded=0;dashed=1;dashPattern=8 8;fillColor=#f5f5f5;strokeColor=#666666;fontFamily=Times New Roman;" edge="1" parent="1">
          <mxGeometry width="50" height="50" relative="1" as="geometry">
            <mxPoint x="284" y="416" as="sourcePoint" />
            <mxPoint x="900" y="416" as="targetPoint" />
          </mxGeometry>
        </mxCell>
        <mxCell id="ni8mfcF26N4LthKKvr2r-63" value="" style="endArrow=none;html=1;rounded=0;dashed=1;dashPattern=8 8;fillColor=#f5f5f5;strokeColor=#666666;fontFamily=Times New Roman;" edge="1" parent="1">
          <mxGeometry width="50" height="50" relative="1" as="geometry">
            <mxPoint x="284" y="288" as="sourcePoint" />
            <mxPoint x="898" y="288" as="targetPoint" />
          </mxGeometry>
        </mxCell>
        <mxCell id="ni8mfcF26N4LthKKvr2r-66" value="" style="verticalLabelPosition=bottom;verticalAlign=top;html=1;shape=mxgraph.basic.rect;fillColor2=none;strokeWidth=1;size=20;indent=5;fillColor=#f8cecc;strokeColor=default;right=1;bottom=1;topLeftStyle=rounded;topRightStyle=rounded;container=0;fontFamily=Times New Roman;" vertex="1" parent="1">
          <mxGeometry x="385" y="464" width="120" height="20" as="geometry" />
        </mxCell>
        <mxCell id="ni8mfcF26N4LthKKvr2r-67" value="Master (4.3)" style="text;html=1;align=center;verticalAlign=middle;whiteSpace=wrap;rounded=0;fontFamily=Times New Roman;container=0;fontSize=11;" vertex="1" parent="1">
          <mxGeometry x="415" y="459" width="60" height="30" as="geometry" />
        </mxCell>
        <mxCell id="ni8mfcF26N4LthKKvr2r-68" value="" style="verticalLabelPosition=bottom;verticalAlign=top;html=1;shape=mxgraph.basic.rect;fillColor2=none;strokeWidth=1;size=20;indent=5;fillColor=#dae8fc;strokeColor=default;align=center;fontFamily=Times New Roman;fontSize=12;fontColor=default;container=0;" vertex="1" parent="1">
          <mxGeometry x="385" y="484" width="30" height="10" as="geometry" />
        </mxCell>
        <mxCell id="ni8mfcF26N4LthKKvr2r-69" value="" style="verticalLabelPosition=bottom;verticalAlign=top;html=1;shape=mxgraph.basic.rect;fillColor2=none;strokeWidth=1;size=10;indent=0;bottomRightStyle=rounded;absoluteCornerSize=1;strokeColor=default;align=center;fontFamily=Times New Roman;fontSize=12;fontColor=default;fillColor=#dae8fc;container=0;right=1;bottom=1;" vertex="1" parent="1">
          <mxGeometry x="474" y="484" width="31" height="40" as="geometry" />
        </mxCell>
        <mxCell id="ni8mfcF26N4LthKKvr2r-70" value="" style="verticalLabelPosition=bottom;verticalAlign=top;html=1;shape=mxgraph.basic.rect;fillColor2=none;strokeWidth=1;size=20;indent=5;left=1;strokeColor=#FFFFFF;" vertex="1" parent="1">
          <mxGeometry x="473" y="485" width="31" height="18" as="geometry" />
        </mxCell>
        <mxCell id="ni8mfcF26N4LthKKvr2r-71" value="" style="verticalLabelPosition=bottom;verticalAlign=top;html=1;shape=mxgraph.basic.rect;fillColor2=none;strokeWidth=1;size=20;indent=5;top=1;strokeColor=#FFFFFF;" vertex="1" parent="1">
          <mxGeometry x="475" y="500" width="29" height="13" as="geometry" />
        </mxCell>
        <mxCell id="ni8mfcF26N4LthKKvr2r-72" value="" style="verticalLabelPosition=bottom;verticalAlign=top;html=1;shape=mxgraph.basic.rect;fillColor2=none;strokeWidth=1;size=20;indent=5;top=0;strokeColor=#000000;right=0;left=0;fillColor=none;" vertex="1" parent="1">
          <mxGeometry x="474" y="501" width="31" height="13" as="geometry" />
        </mxCell>
        <mxCell id="ni8mfcF26N4LthKKvr2r-80" value="" style="rounded=1;whiteSpace=wrap;html=1;fillColor=#f8cecc;strokeColor=default;fontSize=13;fontFamily=Times New Roman;fontStyle=1" vertex="1" parent="1">
          <mxGeometry x="530" y="337" width="120" height="60" as="geometry" />
        </mxCell>
        <mxCell id="ni8mfcF26N4LthKKvr2r-81" value="Master (4.3, 4.4)&lt;div&gt;&lt;i&gt;(Finished)&lt;/i&gt;&lt;/div&gt;" style="text;html=1;align=center;verticalAlign=middle;whiteSpace=wrap;rounded=0;container=0;fontSize=11;fontFamily=Times New Roman;fillColor=#f8cecc;strokeColor=none;" vertex="1" parent="1">
          <mxGeometry x="551.5" y="352" width="77" height="30" as="geometry" />
        </mxCell>
        <mxCell id="ni8mfcF26N4LthKKvr2r-46" value="" style="rounded=1;whiteSpace=wrap;html=1;fillColor=#e1d5e7;strokeColor=default;fontSize=13;fontFamily=Times New Roman;fontStyle=1;absoluteArcSize=1;container=0;" vertex="1" parent="1">
          <mxGeometry x="672" y="337" width="120" height="60" as="geometry" />
        </mxCell>
        <mxCell id="ni8mfcF26N4LthKKvr2r-47" value="" style="verticalLabelPosition=bottom;verticalAlign=top;html=1;shape=mxgraph.basic.rect;fillColor2=none;strokeWidth=1;size=10;indent=0;fillColor=#f8cecc;strokeColor=default;right=1;bottom=1;topLeftStyle=rounded;topRightStyle=rounded;container=0;absoluteCornerSize=1;fontFamily=Times New Roman;" vertex="1" parent="1">
          <mxGeometry x="672" y="337" width="120" height="40" as="geometry" />
        </mxCell>
        <mxCell id="ni8mfcF26N4LthKKvr2r-48" value="Master (4.4)" style="text;html=1;align=center;verticalAlign=middle;whiteSpace=wrap;rounded=0;fontFamily=Times New Roman;container=0;fontSize=11;" vertex="1" parent="1">
          <mxGeometry x="702" y="342" width="60" height="30" as="geometry" />
        </mxCell>
        <mxCell id="ni8mfcF26N4LthKKvr2r-49" value="Open (4.3)" style="text;html=1;align=center;verticalAlign=middle;whiteSpace=wrap;rounded=0;container=0;fontSize=11;fontFamily=Times New Roman;" vertex="1" parent="1">
          <mxGeometry x="702" y="372" width="60" height="30" as="geometry" />
        </mxCell>
      </root>
    </mxGraphModel>
  </diagram>
</mxfile>
